<?xml version="1.0" standalone="no"?>
<!DOCTYPE svg PUBLIC "-//W3C//DTD SVG 20010904//EN"
 "http://www.w3.org/TR/2001/REC-SVG-20010904/DTD/svg10.dtd">
<svg version="1.0" xmlns="http://www.w3.org/2000/svg"
 width="512.000000pt" height="512.000000pt" viewBox="0 0 512.000000 512.000000"
 preserveAspectRatio="xMidYMid meet">

<g transform="translate(0.000000,512.000000) scale(0.100000,-0.100000)"
fill="white" stroke="none">
<path d="M4315 5105 c-232 -35 -496 -111 -743 -216 -184 -79 -205 -92 -262
-169 -72 -98 -168 -259 -247 -415 l-66 -130 7 71 c7 78 41 205 86 322 16 42
28 77 27 79 -7 6 -454 -248 -479 -271 -84 -80 -169 -275 -212 -486 -3 -14 -3
18 -1 70 2 72 12 124 38 215 19 66 34 121 33 123 -5 4 -181 -114 -253 -170
-167 -128 -323 -275 -462 -433 -162 -184 -185 -221 -235 -370 -53 -159 -71
-369 -45 -550 6 -42 8 -79 5 -82 -9 -9 -38 47 -53 104 -8 32 -18 120 -22 197
l-6 139 -125 -130 c-188 -194 -333 -377 -423 -533 -61 -106 -133 -389 -187
-735 -27 -173 -28 -176 -42 -151 -11 20 -6 260 7 301 3 11 -3 2 -13 -20 -44
-96 -56 -164 -57 -322 0 -84 -1 -153 -3 -153 -19 0 -62 226 -62 324 0 25 -4
46 -8 46 -10 0 -44 -144 -73 -308 -25 -143 -31 -390 -10 -470 13 -51 13 -52
51 -52 l38 0 56 105 c227 424 750 1204 1123 1674 294 369 489 568 764 777 460
349 833 591 1309 848 274 149 439 256 640 417 114 92 331 277 360 307 9 9 -23
-11 -195 -123 -93 -61 -176 -115 -184 -120 -17 -10 4 27 92 160 l59 90 -167
-165 c-102 -100 -160 -151 -148 -130 11 19 60 103 108 185 48 83 90 153 92
158 5 9 2 8 -112 -8z"/>
<path d="M4754 4869 c-182 -193 -1000 -810 -1422 -1073 -868 -541 -1716 -1433
-2349 -2471 -117 -192 -233 -390 -233 -399 0 -4 34 -6 76 -6 57 0 82 5 102 18
44 30 116 57 342 127 219 68 357 121 458 177 121 67 329 214 318 226 -2 2 -49
-19 -103 -47 -107 -53 -271 -114 -341 -126 -23 -4 -108 -8 -190 -9 -101 -2
-180 -10 -252 -25 -123 -25 -110 -23 -110 -11 0 25 105 55 310 90 231 38 394
96 685 242 149 74 529 294 585 338 21 17 10 15 -64 -11 -188 -64 -226 -69
-511 -68 -288 2 -285 5 36 43 75 9 182 28 238 41 128 31 552 185 651 236 141
73 276 205 372 365 68 114 68 114 18 103 -90 -20 -314 -39 -471 -39 -133 0
-187 4 -265 21 -107 23 -316 31 -469 17 -97 -9 -75 3 60 34 76 17 120 20 285
19 281 -2 452 22 753 109 334 97 615 235 785 385 93 83 92 84 -65 63 -129 -17
-183 -18 -111 -3 49 11 217 79 306 125 80 41 83 46 17 30 -43 -11 -215 -38
-280 -44 -39 -4 -39 -4 10 10 123 36 273 87 330 113 110 50 251 205 330 361
37 74 76 184 65 188 -4 2 -50 -8 -102 -22 -133 -36 -288 -56 -419 -55 -150 1
-192 13 -82 22 111 10 281 41 383 71 97 29 297 125 328 159 20 21 77 137 67
137 -3 0 -44 -11 -92 -25 -91 -27 -306 -68 -403 -79 -43 -4 -30 1 56 24 128
33 236 73 382 141 l102 48 0 85 c0 47 -2 86 -4 86 -2 0 -32 -13 -67 -29 -69
-31 -259 -94 -265 -88 -2 2 68 50 155 106 88 57 165 109 171 117 18 20 3 85
-31 138 -15 25 -32 46 -37 46 -5 0 -21 -14 -38 -31z"/>
<path d="M4480 4714 c-19 -14 -276 -170 -570 -346 -736 -442 -991 -613 -1380
-923 -291 -232 -547 -496 -854 -880 -261 -327 -491 -651 -738 -1041 -171 -270
-452 -755 -442 -763 5 -5 23 -13 39 -19 17 -5 37 -13 46 -17 14 -5 23 9 47 74
47 122 275 511 489 834 615 928 1393 1724 2210 2260 87 57 230 150 318 207
270 173 719 496 840 604 47 41 45 45 -5 10z"/>
<path d="M4660 1305 c-310 -44 -550 -94 -835 -175 -363 -104 -592 -193 -1120
-435 -347 -160 -559 -246 -797 -326 -422 -140 -841 -222 -1291 -250 -182 -11
-227 -22 -227 -53 0 -27 30 -39 98 -37 257 4 667 54 957 116 401 86 717 196
1215 422 338 154 458 206 625 273 496 198 908 310 1394 380 222 32 253 43 216
79 -31 30 -58 31 -235 6z"/>
<path d="M385 680 c-11 -25 -15 -44 -9 -50 15 -14 194 -83 201 -76 3 3 14 23
24 45 l17 39 -101 41 c-56 23 -105 41 -108 41 -3 0 -14 -18 -24 -40z"/>
<path d="M336 538 c-7 -13 -37 -60 -65 -105 l-51 -83 15 -62 c18 -79 19 -149
2 -215 l-14 -52 63 67 c40 44 82 78 120 97 33 16 61 30 62 31 5 3 72 268 69
270 -3 3 -180 74 -184 74 -1 0 -9 -10 -17 -22z m64 -217 c20 -39 -22 -82 -60
-61 -22 12 -27 49 -8 68 18 18 56 14 68 -7z"/>
</g>
</svg>
